<svg width="482" height="622" viewBox="0 0 482 622" fill="none" xmlns="http://www.w3.org/2000/svg">
<path d="M285 0H482V51H345.685L337.08 42.5L327.57 33L315.795 22.5L299.945 10L285 0Z" fill="#1EFFF1"/>
<rect x="431" y="392" width="378" height="51" transform="rotate(-90 431 392)" fill="#1EFFF1"/>
<path d="M482 392C482 450.899 460.565 507.827 421.621 552.357L382.24 518.608C412.987 483.45 431 438.503 431 392H482Z" fill="#1EFFF1"/>
<path d="M321.5 608C310.5 614.5 285 624.5 214 621C175.303 615.783 138.446 605.15 106.358 583.112C74.2701 561.075 47.9059 531.834 29.4206 497.778C10.9354 463.723 0.853783 425.821 0 387.171L50.579 386.076C51.2583 416.826 59.2791 446.981 73.9858 474.075C88.6925 501.168 109.668 524.433 135.197 541.965C160.725 559.498 190.083 570.802 220.871 574.952C251.658 579.102 255 578.5 285 574.952L321.5 608Z" fill="#1EFFF1"/>
</svg>
