<svg width="500" height="622" viewBox="0 0 500 622" fill="none" xmlns="http://www.w3.org/2000/svg">
<path d="M453.5 597L213 386.227L274.5 386.227L500 568L493 574.5L481 583L469 590L453.5 597Z" fill="white"/>
<rect width="284" height="51" fill="white"/>
<rect y="303" width="284" height="51" fill="white"/>
<rect y="622" width="339" height="51" transform="rotate(-90 0 622)" fill="white"/>
<path d="M0 107.315L0 0H51L51 121L0 107.315Z" fill="white"/>
<path d="M51 208.268L51 328H0L0 193L51 208.268Z" fill="white"/>
<path d="M281 354C327.678 354 372.444 335.352 405.451 302.158C438.457 268.964 457 223.943 457 177C457 130.057 438.457 85.0361 405.451 51.8421C372.444 18.6482 327.678 7.08825e-06 281 0L281 50.9473C314.242 50.9473 346.123 64.2278 369.629 87.8673C393.135 111.507 406.341 143.569 406.341 177C406.341 210.431 393.135 242.493 369.629 266.133C346.123 289.772 314.242 303.053 281 303.053V354Z" fill="white"/>
</svg>
